<?xml version="1.0" standalone="no"?>
<!DOCTYPE svg PUBLIC "-//W3C//DTD SVG 20010904//EN"
 "http://www.w3.org/TR/2001/REC-SVG-20010904/DTD/svg10.dtd">
<svg version="1.0" xmlns="http://www.w3.org/2000/svg"
 width="592.000000pt" height="592.000000pt" viewBox="0 0 592.000000 592.000000"
 preserveAspectRatio="xMidYMid meet">

<g transform="translate(0.000000,592.000000) scale(0.100000,-0.100000)"
fill="#000000" stroke="none">
<path d="M492 5895 c-81 -19 -210 -88 -274 -145 -71 -63 -149 -178 -177 -261
-12 -35 -26 -104 -32 -154 -7 -60 -9 -872 -7 -2440 3 -2205 4 -2354 21 -2410
61 -211 221 -381 418 -446 l74 -24 2450 0 2450 0 67 26 c99 39 173 86 242 155
72 73 118 145 154 246 l27 73 0 2445 0 2445 -23 65 c-70 196 -221 347 -412
413 l-65 22 -2430 2 c-1958 1 -2440 -1 -2483 -12z m3611 -937 c146 -70 271
-225 312 -388 4 -14 51 -65 112 -119 153 -138 214 -227 229 -338 22 -172 -119
-338 -287 -337 -43 1 -69 8 -118 34 -119 64 -177 161 -174 295 1 71 6 89 84
301 38 104 38 105 -24 232 -63 131 -227 231 -379 232 -64 0 -184 -24 -242 -50
-118 -50 -261 -183 -338 -312 -51 -86 -94 -198 -119 -307 -24 -110 -36 -321
-20 -377 13 -47 24 -52 111 -44 88 8 268 -6 364 -29 127 -30 321 -109 542
-221 237 -120 377 -211 475 -309 129 -129 129 -186 2 -276 -122 -87 -207 -158
-291 -245 -96 -97 -168 -187 -158 -197 4 -4 131 55 284 131 318 157 362 170
419 122 45 -38 59 -85 43 -154 -63 -282 -390 -701 -706 -905 -87 -56 -202
-114 -278 -141 -58 -20 -60 -23 -95 -92 -90 -176 -273 -342 -468 -421 -130
-53 -227 -57 -238 -10 -7 28 34 195 75 307 17 45 28 85 25 89 -2 4 -53 11
-112 14 -59 4 -151 16 -203 27 -52 11 -102 20 -111 20 -9 0 -44 -37 -77 -83
-93 -128 -196 -187 -327 -186 -88 0 -153 25 -240 94 -108 85 -109 105 -7 188
37 30 96 81 131 114 l65 59 -118 68 c-160 94 -311 160 -361 161 -68 0 -99 -33
-229 -243 -92 -149 -178 -256 -270 -334 -58 -48 -76 -58 -107 -58 -60 0 -89
36 -138 175 -141 399 -262 1019 -248 1275 5 91 9 107 28 123 26 21 71 21 162
2 95 -20 182 -64 402 -205 105 -66 200 -123 213 -127 55 -14 109 73 187 302
45 132 45 189 -1 257 -49 73 -50 68 10 152 27 39 24 98 -8 146 -14 22 -26 43
-25 47 0 5 31 33 68 65 69 57 101 105 101 152 0 15 -9 54 -20 87 -12 34 -20
62 -18 64 2 1 26 10 53 19 71 23 110 49 144 96 49 68 60 174 26 263 -18 45
176 0 349 -82 128 -60 212 -116 298 -199 92 -88 101 -85 110 43 20 294 91 510
232 714 71 103 159 187 256 245 161 95 238 116 425 113 139 -2 140 -2 218 -39z"/>
<path d="M3835 3300 c-73 -17 -105 -53 -105 -119 0 -55 29 -103 74 -125 46
-21 90 -11 131 30 93 93 23 243 -100 214z"/>
</g>
</svg>
